<?xml version="1.0" encoding="UTF-8" standalone="no"?>
<!DOCTYPE svg PUBLIC "-//W3C//DTD SVG 1.1//EN" "http://www.w3.org/Graphics/SVG/1.1/DTD/svg11.dtd">
<svg width="100%" height="100%" viewBox="0 0 20 20" version="1.1" xmlns="http://www.w3.org/2000/svg" xmlns:xlink="http://www.w3.org/1999/xlink" xml:space="preserve" xmlns:serif="http://www.serif.com/" style="fill-rule:evenodd;clip-rule:evenodd;stroke-linejoin:round;stroke-miterlimit:2;">
    <g transform="matrix(1,0,0,1,-1,-2)">
        <g transform="matrix(0.025,0,0,0.025,0,24)">
            <path d="M280,-80C258,-80 239.167,-87.833 223.5,-103.5C207.833,-119.167 200,-138 200,-160C200,-182 207.833,-200.833 223.5,-216.5C239.167,-232.167 258,-240 280,-240C302,-240 320.833,-232.167 336.5,-216.5C352.167,-200.833 360,-182 360,-160C360,-138 352.167,-119.167 336.5,-103.5C320.833,-87.833 302,-80 280,-80ZM680,-80C658,-80 639.167,-87.833 623.5,-103.5C607.833,-119.167 600,-138 600,-160C600,-182 607.833,-200.833 623.5,-216.5C639.167,-232.167 658,-240 680,-240C702,-240 720.833,-232.167 736.5,-216.5C752.167,-200.833 760,-182 760,-160C760,-138 752.167,-119.167 736.5,-103.5C720.833,-87.833 702,-80 680,-80ZM246,-720L342,-520L622,-520L732,-720L246,-720ZM208,-800L798,-800C813.333,-800 825,-793.167 833,-779.5C841,-765.833 841.333,-752 834,-738L692,-482C684.667,-468.667 674.833,-458.333 662.5,-451C650.167,-443.667 636.667,-440 622,-440L324,-440L280,-360L760,-360L760,-280L280,-280C250,-280 227.333,-293.167 212,-319.5C196.667,-345.833 196,-372 210,-398L264,-496L120,-800L40,-800L40,-880L170,-880L208,-800ZM342,-520L622,-520L342,-520Z" style="fill:rgb(28,78,85);fill-rule:nonzero;"/>
        </g>
    </g>
</svg>
