<?xml version="1.0" encoding="UTF-8" standalone="no"?>
<!DOCTYPE svg PUBLIC "-//W3C//DTD SVG 1.1//EN" "http://www.w3.org/Graphics/SVG/1.1/DTD/svg11.dtd">
<svg width="100%" height="100%" viewBox="0 0 123 69" version="1.1" xmlns="http://www.w3.org/2000/svg" xmlns:xlink="http://www.w3.org/1999/xlink" xml:space="preserve" xmlns:serif="http://www.serif.com/" style="fill-rule:evenodd;clip-rule:evenodd;stroke-linejoin:round;stroke-miterlimit:2;">
    <path d="M40.42,3.37C40.12,3.369 39.826,3.286 39.57,3.13C38.908,3.033 38.239,2.986 37.57,2.99C29.745,2.995 23.309,9.435 23.309,17.26C23.309,25.088 29.75,31.53 37.579,31.53C45.407,31.53 51.849,25.088 51.849,17.26C51.849,10.662 47.272,4.883 40.85,3.37L40.42,3.37ZM18.69,30.78C21.268,30.773 23.819,31.305 26.18,32.34C26.273,32.33 26.367,32.33 26.46,32.34L29,32.34C23.582,29.276 20.221,23.514 20.221,17.29C20.221,7.805 28.026,-0 37.511,-0C37.527,-0 37.544,-0 37.56,0C38.393,-0.001 39.226,0.059 40.05,0.18C40.173,0.165 40.297,0.165 40.42,0.18L90,0.18C96.977,0.03 103.334,4.309 105.82,10.83C106.715,13.056 107.186,15.431 107.21,17.83C107.267,20.168 106.856,22.494 106,24.67C104.681,27.952 102.239,30.66 99.11,32.31L105.72,32.31C112.687,32.189 119.017,36.482 121.48,43C122.381,45.225 122.856,47.6 122.88,50C122.919,52.373 122.48,54.73 121.59,56.93C119.32,62.41 114.13,66.61 105.67,66.61L60.81,66.61C55.652,68.907 49.722,68.753 44.69,66.19C44.396,66.462 44.01,66.612 43.61,66.61L26.31,66.61C23.909,67.685 21.307,68.24 18.676,68.24C8.423,68.24 -0.014,59.803 -0.014,49.55C-0.014,39.297 8.423,30.86 18.676,30.86C18.681,30.86 18.685,30.86 18.69,30.86L18.69,30.78ZM31.16,35.54L31.9,36.25C33.612,37.97 34.971,40.008 35.9,42.25C36.833,40.01 38.191,37.972 39.9,36.25C40.14,36.01 40.39,35.77 40.65,35.54L31.16,35.54ZM35.94,56.66C35.011,58.902 33.652,60.94 31.94,62.66L31.29,63.29L40.68,63.29L40,62.68C38.291,60.958 36.933,58.92 36,56.68L35.94,56.66ZM29.62,38.53C26.722,35.633 22.788,34.004 18.69,34.004C10.209,34.004 3.23,40.983 3.23,49.464C3.23,57.945 10.209,64.924 18.69,64.924C27.171,64.924 34.15,57.945 34.15,49.464C34.15,49.462 34.15,49.461 34.15,49.46C34.156,45.36 32.524,41.424 29.62,38.53ZM18.69,41.14C18.697,41.14 18.704,41.14 18.71,41.14C23.28,41.14 27.04,44.9 27.04,49.47C27.04,54.04 23.28,57.8 18.71,57.8C16.497,57.8 14.372,56.918 12.81,55.35L12.71,55.25C9.574,52.009 9.618,46.776 12.81,43.59C14.367,42.028 16.484,41.149 18.69,41.15L18.69,41.14ZM22.29,45.86C21.336,44.905 20.04,44.368 18.69,44.368C17.34,44.368 16.044,44.905 15.09,45.86C13.149,47.813 13.109,50.999 15,53L15.08,53.07C16.035,54.024 17.331,54.56 18.68,54.56C21.475,54.56 23.775,52.26 23.775,49.465C23.775,48.113 23.237,46.815 22.28,45.86L22.29,45.86ZM53.2,30.78C54.418,30.779 55.634,30.896 56.83,31.13L90,31.13C96.51,31.13 100.61,28.2 102.58,24.25L77.37,24.25C76.532,24.184 75.877,23.476 75.877,22.635C75.877,21.794 76.532,21.086 77.37,21.02L103.72,21.02C103.939,19.958 104.043,18.875 104.03,17.79C104.003,15.804 103.606,13.841 102.86,12C100.838,6.703 95.668,3.234 90,3.37L47.81,3.37C48.52,3.88 49.189,4.445 49.81,5.06C51.633,6.879 53.027,9.083 53.89,11.51L88.93,11.51C89.768,11.576 90.423,12.284 90.423,13.125C90.423,13.966 89.768,14.674 88.93,14.74L54.66,14.74C54.784,15.584 54.848,16.437 54.85,17.29C54.856,21.874 53.029,26.276 49.78,29.51C49.203,30.097 48.581,30.639 47.92,31.13L49.56,31.13C50.759,30.896 51.978,30.779 53.2,30.78ZM65.66,35.54C65.92,35.77 66.17,36.01 66.41,36.25C68.338,38.177 69.823,40.501 70.76,43.06L105.23,43.06C106.113,43.06 106.84,43.787 106.84,44.67C106.84,45.553 106.113,46.28 105.23,46.28L71.62,46.28C71.796,47.331 71.886,48.394 71.89,49.46C71.895,54.418 69.922,59.179 66.41,62.68L65.75,63.31L105.67,63.31C112.52,63.31 116.67,60.05 118.54,55.79L93,55.79C92.958,55.793 92.915,55.795 92.873,55.795C91.984,55.795 91.253,55.064 91.253,54.175C91.253,53.286 91.984,52.555 92.873,52.555C92.915,52.555 92.958,52.557 93,52.56L119.51,52.56C119.649,51.7 119.712,50.831 119.7,49.96C119.675,47.974 119.278,46.01 118.53,44.17C116.515,38.885 111.364,35.418 105.71,35.54L65.66,35.54ZM64.13,38.54C62.04,36.447 59.391,34.999 56.5,34.37L49.89,34.37C42.82,35.919 37.738,42.235 37.738,49.472C37.738,57.953 44.717,64.932 53.198,64.932C61.679,64.932 68.658,57.953 68.658,49.472C68.658,45.373 67.028,41.438 64.13,38.54ZM53.2,41.14C53.203,41.14 53.207,41.14 53.21,41.14C57.78,41.14 61.54,44.9 61.54,49.47C61.54,54.04 57.78,57.8 53.21,57.8C50.997,57.8 48.872,56.918 47.31,55.35L47.22,55.25C44.07,52.017 44.111,46.774 47.31,43.59C48.872,42.029 50.992,41.151 53.2,41.15L53.2,41.14ZM56.8,45.86C54.82,43.889 51.57,43.889 49.59,45.86C47.644,47.814 47.613,51.008 49.52,53L49.59,53.07C50.537,53.969 51.794,54.47 53.1,54.47C55.898,54.47 58.2,52.168 58.2,49.37C58.2,48.064 57.699,46.807 56.8,45.86ZM85.8,52.56C86.638,52.626 87.293,53.334 87.293,54.175C87.293,55.016 86.638,55.724 85.8,55.79L77.34,55.79C77.298,55.793 77.255,55.795 77.213,55.795C76.324,55.795 75.593,55.064 75.593,54.175C75.593,53.286 76.324,52.555 77.213,52.555C77.255,52.555 77.298,52.557 77.34,52.56L85.8,52.56ZM37.57,9.56C37.582,9.56 37.593,9.56 37.605,9.56C41.824,9.56 45.295,13.031 45.295,17.25C45.295,19.309 44.468,21.285 43,22.73C41.56,24.175 39.601,24.989 37.56,24.989C35.519,24.989 33.56,24.175 32.12,22.73C30.675,21.29 29.861,19.331 29.861,17.29C29.861,15.249 30.675,13.29 32.12,11.85C33.558,10.408 35.514,9.598 37.55,9.6L37.57,9.56ZM40.89,14C39.061,12.179 36.059,12.179 34.23,14C32.409,15.829 32.409,18.831 34.23,20.66C35.117,21.577 36.34,22.096 37.616,22.096C40.2,22.096 42.326,19.97 42.326,17.386C42.326,16.11 41.807,14.887 40.89,14Z" style="fill:white;fill-rule:nonzero;"/>
</svg>
