<?xml version="1.0" encoding="UTF-8" standalone="no"?>
<!DOCTYPE svg PUBLIC "-//W3C//DTD SVG 1.1//EN" "http://www.w3.org/Graphics/SVG/1.1/DTD/svg11.dtd">
<svg width="100%" height="100%" viewBox="0 0 22 20" version="1.1" xmlns="http://www.w3.org/2000/svg" xmlns:xlink="http://www.w3.org/1999/xlink" xml:space="preserve" xmlns:serif="http://www.serif.com/" style="fill-rule:evenodd;clip-rule:evenodd;stroke-linejoin:round;stroke-miterlimit:2;">
    <g transform="matrix(1,0,0,1,-1,-1)">
        <g transform="matrix(0.025,0,0,0.025,0,24)">
            <path d="M120,-120C98,-120 79.167,-127.833 63.5,-143.5C47.833,-159.167 40,-178 40,-200L40,-680C40,-702 47.833,-720.833 63.5,-736.5C79.167,-752.167 98,-760 120,-760L246,-760L320,-840L560,-840L560,-760L355,-760L282,-680L120,-680L120,-200L760,-200L760,-560L840,-560L840,-200C840,-178 832.167,-159.167 816.5,-143.5C800.833,-127.833 782,-120 760,-120L120,-120ZM760,-680L760,-760L680,-760L680,-840L760,-840L760,-920L840,-920L840,-840L920,-840L920,-760L840,-760L840,-680L760,-680ZM440,-260C490,-260 532.5,-277.5 567.5,-312.5C602.5,-347.5 620,-390 620,-440C620,-490 602.5,-532.5 567.5,-567.5C532.5,-602.5 490,-620 440,-620C390,-620 347.5,-602.5 312.5,-567.5C277.5,-532.5 260,-490 260,-440C260,-390 277.5,-347.5 312.5,-312.5C347.5,-277.5 390,-260 440,-260ZM440,-340C412,-340 388.333,-349.667 369,-369C349.667,-388.333 340,-412 340,-440C340,-468 349.667,-491.667 369,-511C388.333,-530.333 412,-540 440,-540C468,-540 491.667,-530.333 511,-511C530.333,-491.667 540,-468 540,-440C540,-412 530.333,-388.333 511,-369C491.667,-349.667 468,-340 440,-340Z" style="fill:rgb(192,152,88);fill-rule:nonzero;"/>
        </g>
    </g>
</svg>
